<?xml version="1.0" standalone="no"?>
<!DOCTYPE svg PUBLIC "-//W3C//DTD SVG 20010904//EN"
 "http://www.w3.org/TR/2001/REC-SVG-20010904/DTD/svg10.dtd">
<svg version="1.0" xmlns="http://www.w3.org/2000/svg"
 width="700.000000pt" height="350.000000pt" viewBox="0 0 700.000000 350.000000"
 preserveAspectRatio="xMidYMid meet">

<g transform="translate(0.000000,350.000000) scale(0.100000,-0.100000)"
fill="#000000" stroke="none">
<path d="M700 1965 l0 -505 105 0 105 0 0 220 0 220 223 -2 222 -3 3 -217 2
-218 105 0 105 0 -2 503 -3 502 -102 3 -103 3 -2 -193 -3 -193 -222 -3 -223
-2 0 195 0 195 -105 0 -105 0 0 -505z"/>
<path d="M2060 1965 l0 -505 350 0 350 0 0 90 0 90 -245 0 -245 0 0 130 0 130
173 2 172 3 0 85 0 85 -172 3 -173 2 0 105 0 105 235 0 235 0 0 90 0 90 -340
0 -340 0 0 -505z"/>
<path d="M3207 2463 c-4 -3 -7 -230 -7 -504 0 -444 2 -498 16 -503 9 -3 56 -6
105 -6 l89 0 0 180 0 180 78 0 79 0 56 -77 c31 -43 62 -85 69 -95 7 -9 40 -53
72 -97 l59 -81 118 0 119 0 -51 68 c-27 37 -58 78 -67 92 -9 14 -50 71 -91
128 -41 57 -70 106 -65 111 5 4 28 22 51 40 128 98 151 314 46 441 -48 58 -88
85 -169 110 -58 17 -93 20 -283 20 -120 0 -221 -3 -224 -7z m450 -192 c49 -23
73 -55 80 -109 8 -57 -12 -106 -55 -139 -35 -26 -44 -28 -154 -32 l-118 -3 0
144 c0 80 3 148 7 151 3 4 49 7 102 7 73 0 106 -5 138 -19z"/>
<path d="M5945 2463 c-159 -35 -250 -117 -262 -237 -17 -167 50 -247 310 -366
159 -72 194 -116 151 -190 -55 -92 -228 -75 -333 34 -51 52 -47 52 -138 -22
-41 -33 -42 -35 -28 -60 84 -154 326 -234 512 -171 116 39 189 127 200 242 15
164 -52 244 -289 349 -173 76 -217 125 -172 193 16 25 80 55 117 55 36 -1 109
-39 152 -80 l40 -38 68 55 67 54 -27 36 c-84 110 -245 174 -368 146z"/>
<path d="M4630 2216 c-25 -7 -63 -24 -86 -38 -46 -30 -124 -102 -124 -116 0
-5 -7 -15 -15 -22 -24 -20 -55 -136 -55 -209 0 -179 106 -322 279 -381 33 -11
74 -20 91 -20 l30 0 0 84 0 84 -37 7 c-107 20 -192 119 -193 225 0 59 38 140
84 176 19 16 59 36 88 45 l53 16 3 82 3 81 -38 -1 c-21 0 -58 -6 -83 -13z"/>
</g>
</svg>
